<?xml version="1.0" encoding="us-ascii" standalone="no"?><svg xmlns="http://www.w3.org/2000/svg" xmlns:xlink="http://www.w3.org/1999/xlink" contentStyleType="text/css" height="298px" preserveAspectRatio="none" style="width:105px;height:298px;background:#FFFFFF;" version="1.1" viewBox="0 0 105 298" width="105px" zoomAndPan="magnify"><defs/><g><rect fill="none" height="129.2344" style="stroke:#000000;stroke-width:1.5;" width="83" x="11" y="11"/><path d="M84,11 L84,20.2969 L74,30.2969 L11,30.2969 " fill="none" style="stroke:#000000;stroke-width:1.5;"/><text fill="#000000" font-family="sans-serif" font-size="14" lengthAdjust="spacing" textLength="63" x="14" y="24.9951">TestMain</text><rect fill="#F1F1F1" height="33.9688" rx="12.5" ry="12.5" style="stroke:#181818;stroke-width:0.5;" width="47" x="29" y="40.2969"/><text fill="#000000" font-family="sans-serif" font-size="12" lengthAdjust="spacing" textLength="27" x="39" y="61.4355">Test</text><rect fill="#F1F1F1" height="33.9688" rx="12.5" ry="12.5" style="stroke:#181818;stroke-width:0.5;" width="51" x="27" y="94.2656"/><text fill="#000000" font-family="sans-serif" font-size="12" lengthAdjust="spacing" textLength="31" x="37" y="115.4043">Start</text><rect fill="none" height="136.2344" style="stroke:#000000;stroke-width:1.5;" width="67" x="19" y="151.0361"/><path d="M76,151.0361 L76,160.333 L66,170.333 L19,170.333 " fill="none" style="stroke:#000000;stroke-width:1.5;"/><text fill="#000000" font-family="sans-serif" font-size="14" lengthAdjust="spacing" textLength="47" x="22" y="165.0313">Debug</text><rect fill="#F1F1F1" height="33.9688" rx="12.5" ry="12.5" style="stroke:#181818;stroke-width:0.5;" width="41" x="32" y="187.333"/><text fill="#000000" font-family="sans-serif" font-size="12" lengthAdjust="spacing" textLength="21" x="42" y="208.4717">run</text><rect fill="#F1F1F1" height="33.9688" rx="12.5" ry="12.5" style="stroke:#181818;stroke-width:0.5;" width="44" x="30.5" y="241.3018"/><text fill="#000000" font-family="sans-serif" font-size="12" lengthAdjust="spacing" textLength="24" x="40.5" y="262.4404">end</text><line style="stroke:#181818;stroke-width:1.0;" x1="52.5" x2="52.5" y1="74.2656" y2="94.2656"/><polygon fill="#181818" points="48.5,84.2656,52.5,94.2656,56.5,84.2656,52.5,88.2656" style="stroke:#181818;stroke-width:1.0;"/><line style="stroke:#181818;stroke-width:1.0;" x1="52.5" x2="52.5" y1="221.3018" y2="241.3018"/><polygon fill="#181818" points="48.5,231.3018,52.5,241.3018,56.5,231.3018,52.5,235.3018" style="stroke:#181818;stroke-width:1.0;"/><line style="stroke:#181818;stroke-width:1.0;" x1="52.5" x2="52.5" y1="128.2344" y2="187.333"/><polygon fill="#181818" points="48.5,177.333,52.5,187.333,56.5,177.333,52.5,181.333" style="stroke:#181818;stroke-width:1.0;"/><!--SRC=[AqWiAiaioSpFKmX9BIxnJSpCg-PI008h4DSQmWmk0IgovghbAe0hTabDAaq7gRGgAiq3ARDApKi1AW40]--></g></svg>